<svg width="104" height="54" viewBox="0 0 104 54" fill="none" xmlns="http://www.w3.org/2000/svg">
<g clip-path="url(#clip0_15_145)">
<path d="M18.971 9.39035C18.0197 9.04977 17.0126 8.89247 16.0027 8.92678C17.2096 11.5836 21.6334 14.2047 23.8297 16.0485C27.1604 18.9087 30.523 21.7144 33.995 24.3899C37.2646 26.9101 38.7117 28.5752 37.7018 23.4866C37.1424 20.619 35.8964 16.5025 37.7004 13.8175C43.7806 4.72796 69.9607 31.1195 74.8758 35.0913C80.7439 40.0057 86.9268 44.5316 93.385 48.6399C94.2849 49.2184 96.5439 49.7978 96.4496 51.2599C96.3553 52.722 94.7056 52.9356 93.5329 52.9229C89.991 52.9003 85.9545 49.6559 83.0845 47.9048C76.3141 43.769 69.7853 39.2502 63.5298 34.3704C61.7014 32.9621 43.8909 17.5579 42.86 18.7607C42.1513 19.5513 43.8122 23.9292 43.9641 24.7585C44.4267 26.7777 45.4085 29.387 44.9446 31.4865C44.0536 35.7034 39.5865 35.4648 36.5948 33.9027C32.0668 31.4845 27.8955 27.2815 24.2068 23.7937C22.11 21.8176 19.9936 19.8374 17.9087 17.8535C16.4491 16.4413 14.368 13.3749 12.5815 12.4456C11.2809 15.5539 13.1389 21.6598 13.6397 25.0465C13.8519 26.4609 14.5642 29.3301 12.5521 29.8555C10.9253 30.2988 10.3912 28.9084 9.83532 27.7178C8.18926 24.1402 8.07531 19.2613 7.87205 15.3856C7.6688 11.5099 6.30703 7.21566 6.4086 3.44522C6.53029 -1.09774 10.679 1.56738 13.3376 2.1904C17.5653 3.17556 21.8999 3.70294 26.1788 4.30033C28.094 4.57208 34.6413 4.88214 31.3936 7.77325C28.9833 9.94186 21.8354 10.3941 18.9514 9.38622C17.9046 9.16504 20.2861 9.84194 18.971 9.39035Z" fill="#FFB100"/>
</g>
<defs>
<clipPath id="clip0_15_145">
<rect width="34.03" height="98.1" fill="white" transform="translate(0 33.2952) rotate(-78.0706)"/>
</clipPath>
</defs>
</svg>
