<svg width="700" height="31" viewBox="0 0 700 31" fill="none" xmlns="http://www.w3.org/2000/svg">
<path d="M671.005 4.41938C668.387 4.53492 665.953 4.62158 663.465 4.75156L652.993 5.3437C647.25 5.67553 641.555 6.22565 635.949 6.99014C629.96 7.83963 624.17 9.0707 618.696 10.6585C617.623 10.9762 616.549 11.3229 615.424 11.5973L611.784 12.4927C610.057 12.8826 608.355 13.2437 606.548 13.547C604.498 13.8869 602.407 14.1475 600.291 14.3269C598.432 14.428 596.6 14.4858 594.741 14.4858C592.99 14.4884 591.24 14.4257 589.505 14.298C587.121 14.0813 584.761 13.792 582.436 13.4315C580.003 13.0297 577.616 12.5474 575.288 11.9872C571.298 11.017 567.425 9.90747 563.69 8.66546C561.91 8.07332 560.156 7.48118 558.454 6.86016C556.752 6.23913 554.291 5.3437 552.145 4.65046C550.478 4.0861 548.726 3.60286 546.908 3.20622C545.759 2.96353 544.577 2.77039 543.374 2.62852C542.16 2.4867 540.924 2.40932 539.683 2.39744C538.936 2.40009 538.191 2.43875 537.457 2.51298C536.402 2.59999 535.361 2.73034 534.342 2.90293C532.736 3.22121 531.186 3.61752 529.708 4.08721L520.597 6.73017C516.774 7.85668 512.9 8.93987 508.946 9.90751C506.511 10.4419 504.077 10.9185 501.563 11.3518C498.276 11.8762 494.925 12.272 491.536 12.536C488.287 12.7622 485.018 12.8876 481.744 12.9115C478.03 12.9073 474.32 12.7577 470.644 12.4638C465.983 12.0883 461.402 11.5828 456.82 11.0196C452.602 10.4709 448.463 9.75166 444.437 8.86765C440.44 7.90482 436.521 6.83608 432.681 5.66143C428.365 4.30592 423.856 3.14669 419.198 2.19525C417.396 1.82011 415.551 1.51133 413.674 1.27093C411.441 1.03027 409.168 0.918936 406.893 0.938758C402.227 1.03211 397.656 1.69817 393.515 2.88849C388.601 4.39148 383.955 6.14679 379.639 8.13109C377.021 9.24316 374.403 10.413 371.785 11.5684C369.56 12.5071 367.36 13.4459 365.03 14.2836C362.611 15.1772 360.053 15.9505 357.385 16.5944C356.155 16.8688 354.924 17.1143 353.642 17.3309C351.983 17.6131 350.284 17.816 348.563 17.9375C347.885 17.9831 347.203 18.0072 346.52 18.0097H345.054C343.685 17.8438 342.338 17.6266 341.022 17.3598C336.315 16.0603 331.837 14.5229 327.644 12.7671C325.628 11.8861 323.665 10.9618 321.78 9.99416L317.826 7.97222C314.588 6.10142 311.171 4.32729 307.59 2.65741C305.981 1.99671 304.263 1.42128 302.458 0.938758C301.469 0.686888 300.444 0.479213 299.395 0.317734L298.479 0.202194L296.201 0H295.154H294.761C294.103 0.000137765 293.447 0.0291139 292.797 0.0866546C291.554 0.183933 290.328 0.338527 289.132 0.548812C286.754 0.942255 284.427 1.42479 282.168 1.99306C280.309 2.44077 278.477 2.93181 276.644 3.4373C275.335 3.76947 274.026 4.08721 272.769 4.46271L266.852 6.25357C265.857 6.55686 264.836 6.84571 263.868 7.17789L258.631 9.04096C257.27 9.50312 256.013 9.96528 254.573 10.4852L244.546 14.1247C237.508 16.87 230.033 19.2579 222.214 21.2593C220.46 21.6492 218.706 22.0103 216.978 22.3424C214.755 22.7331 212.479 23.0229 210.171 23.209L207.238 23.3534C205.796 23.3846 204.351 23.3508 202.919 23.2523C200.857 23.0709 198.832 22.7807 196.871 22.3858C194.754 21.8194 192.73 21.1526 190.823 20.3927C187.852 19.0162 185.044 17.5352 182.419 15.9589C181.11 15.1934 179.801 14.428 178.413 13.6625C177.026 12.8971 175.088 11.915 173.177 11.0773C170.953 9.99463 168.352 9.1739 165.532 8.66546C164.491 8.50643 163.418 8.41911 162.338 8.4055C161.653 8.42026 160.97 8.46371 160.296 8.53548C159.308 8.65304 158.349 8.83736 157.443 9.08429C156.488 9.31545 155.605 9.6273 154.824 10.0086C154.065 10.413 153.332 10.8174 152.625 11.2507C151.29 12.0594 150.007 12.9693 148.829 13.8214L146.002 15.8867C144.85 16.681 143.645 17.4465 142.493 18.2263C140.136 19.7641 137.505 21.1673 134.639 22.4147C132.469 23.2919 130.145 24.0467 127.701 24.6677C125.489 25.1274 123.2 25.4661 120.868 25.6786C117.571 25.8808 114.243 25.8808 110.945 25.6786C105.75 25.1395 100.682 24.277 95.8391 23.1079C91.3964 22.0101 87.0775 20.7658 82.9058 19.3817C80.7328 18.6741 78.6383 17.9375 76.57 17.1143C74.5018 16.2911 72.3811 15.5545 70.3128 14.7457C68.2445 13.9369 66.1501 13.1426 63.9771 12.3916C61.7679 11.6236 59.4675 10.9384 57.0915 10.3408C52.748 9.16363 47.9764 8.54632 43.1371 8.53548C42.0129 8.55999 40.8932 8.62755 39.786 8.73767C38.6079 8.85321 37.4559 8.98319 36.3039 9.1565C35.2762 9.3318 34.2705 9.54408 33.2931 9.79197C32.2197 10.0375 31.1725 10.2975 30.0991 10.5719C25.4572 11.7222 21.0069 13.0947 16.7992 14.6735C12.998 16.0865 9.4866 17.7233 6.32691 19.5551C4.90239 20.3886 3.56501 21.2662 2.32124 22.1836C1.71272 22.6178 1.24341 23.1063 0.93366 23.6278L0.540948 24.2344C0.383863 24.6677 0.252959 25.1009 0.0958743 25.5342C-0.0337434 25.8082 -0.0319034 26.0961 0.101213 26.3696C0.23433 26.643 0.494142 26.8927 0.855118 27.094C1.22891 27.2844 1.68747 27.4168 2.18414 27.4777C2.68081 27.5386 3.19785 27.5258 3.68265 27.4406L5.77711 27.1084C6.75468 26.9355 7.70121 26.7131 8.60464 26.4441C9.26755 26.2276 9.74748 25.8747 9.93894 25.4631C10.1304 25.0514 10.0177 24.6147 9.62569 24.2488C9.44786 24.0674 9.20163 23.9091 8.90358 23.7845C8.60552 23.6599 8.26255 23.572 7.89776 23.5267C10.4462 21.9088 13.2691 20.4289 16.328 19.1073C21.1879 17.0973 26.4605 15.4103 32.0365 14.0814C33.2931 13.7781 34.6546 13.5037 35.8589 13.2293C37.4482 12.8988 39.0989 12.6663 40.7809 12.536C42.2534 12.4711 43.7329 12.4711 45.2054 12.536C46.2016 12.6239 47.189 12.7396 48.1639 12.8826C49.6001 13.1058 51.0082 13.3808 52.379 13.7059C55.098 14.3834 57.7232 15.1702 60.2332 16.06C63.1131 17.071 65.7574 18.2552 68.5325 19.3529C71.3077 20.4505 74.0043 21.5192 76.8057 22.5446C79.607 23.57 82.4345 24.5088 85.3668 25.4331C91.0157 27.1896 97.0052 28.5897 103.222 29.607C109.617 30.6853 116.356 31.0004 122.989 30.5313C126.071 30.3057 129.084 29.8489 131.942 29.1737C134.718 28.5017 137.352 27.6639 139.797 26.6752C142.445 25.594 144.9 24.3753 147.127 23.0357C148.305 22.328 149.405 21.5914 150.505 20.8404C152.102 19.7572 153.673 18.6596 155.243 17.5476C157.082 16.1436 159.085 14.8072 161.239 13.547L161.762 13.3881L162.338 13.2437H162.574C163.018 13.2958 163.455 13.3633 163.883 13.4459C164.94 13.7188 165.955 14.0375 166.92 14.3991C169.642 15.638 172.213 16.9744 174.617 18.3997C177.733 20.1905 180.822 21.9814 184.252 23.5989C185.744 24.2826 187.319 24.9099 188.964 25.4764C190.898 26.1314 192.94 26.6827 195.064 27.1229C197.02 27.5142 199.049 27.7854 201.112 27.9317C203.53 28.1265 205.977 28.1846 208.417 28.105C210.456 28.012 212.485 27.8528 214.491 27.6284C216.907 27.3593 219.28 26.9825 221.586 26.5019C225.915 25.6324 230.109 24.5698 234.126 23.3245C240.043 21.5337 245.62 19.4251 251.222 17.3454C253.84 16.3488 256.458 15.3234 259.234 14.3702L268.58 11.0918L269.706 10.7596L272.9 9.77753L277.77 8.33328L278.764 8.05888L282.168 7.17789C284.105 6.6724 285.99 6.18136 287.928 5.73365C289.879 5.30898 291.883 4.96148 293.923 4.69379C294.342 4.67937 294.761 4.67937 295.18 4.69379H296.201C297.087 4.78771 297.962 4.91314 298.819 5.06929C300.221 5.49158 301.561 5.97451 302.825 6.51354C306.752 8.31884 310.181 10.413 313.925 12.2905C316.255 13.4892 318.585 14.6735 321.073 15.7856C323.56 16.8976 325.654 17.7209 328.063 18.6019C330.632 19.5306 333.298 20.3745 336.048 21.1293C338.48 21.8765 341.144 22.3664 343.902 22.5735C345.122 22.6242 346.348 22.6242 347.568 22.5735C349.161 22.5191 350.746 22.3984 352.306 22.2125C354.939 21.9096 357.51 21.4595 359.977 20.8693C362.766 20.2155 365.454 19.4379 368.015 18.5441C371.552 17.2618 374.952 15.8682 378.199 14.3702L384.038 11.785L388.698 9.82085C391.996 8.40629 395.559 7.19099 399.327 6.1958C401.201 5.80587 403.139 5.5157 405.113 5.32926C406.056 5.32926 406.998 5.2426 407.967 5.2426C408.842 5.23273 409.718 5.26171 410.585 5.32926C413.603 5.61319 416.559 6.06813 419.408 6.68685C421.886 7.29343 424.321 7.94334 426.712 8.63657C428.205 9.06985 429.645 9.53201 431.111 9.99416C432.577 10.4563 434.043 10.8318 435.509 11.2218C438.363 12.0017 441.243 12.666 444.175 13.3737C447.278 14.0309 450.452 14.5808 453.679 15.0201C460.319 15.9702 467.073 16.6603 473.89 17.0854C477.367 17.2966 480.866 17.3786 484.362 17.3309C487.818 17.2465 491.262 17.0536 494.678 16.7532C500.824 16.2656 506.828 15.3332 512.533 13.9803C516.198 13.1282 519.733 12.1461 523.267 11.0918C527.535 9.90751 531.697 8.63657 536.017 7.53895C536.874 7.3791 537.749 7.24886 538.635 7.149C539.158 7.12731 539.683 7.12731 540.206 7.149C541.443 7.28589 542.66 7.47418 543.845 7.71226C547.738 8.84711 551.482 10.1308 555.051 11.5539C558.763 12.9451 562.628 14.2088 566.623 15.3379C570.621 16.4513 574.749 17.4163 578.98 18.2263C583.763 19.0894 588.743 19.5756 593.772 19.6706C598.178 19.7633 602.585 19.5105 606.862 18.9196C610.535 18.3993 614.105 17.6784 617.518 16.7677C619.01 16.3922 620.476 16.0167 621.916 15.5978L624.692 14.7746C626.079 14.3558 627.545 14.0092 629.011 13.6625C636.081 12.185 643.447 11.1813 650.951 10.673C655.009 10.3986 659.093 10.2397 663.151 10.023C666.659 9.8353 670.22 9.74864 673.624 9.61866C680.797 9.3587 687.997 9.11317 695.17 9.12762C696.444 9.07694 697.636 8.76202 698.506 8.24622C699.376 7.73042 699.86 7.052 699.86 6.34745C699.86 5.6429 699.376 4.96448 698.506 4.44868C697.636 3.93288 696.444 3.61796 695.17 3.56728C689.725 3.56728 684.279 3.84169 678.834 4.07277L671.005 4.41938Z" fill="#F42C04"/>
</svg>
