<svg width="121" height="121" viewBox="0 0 121 121" fill="none" xmlns="http://www.w3.org/2000/svg">
<g clip-path="url(#clip0_15_236)">
<path d="M80.43 68.58C88.93 64.27 101.55 62.43 120.91 60.46C101.31 58.46 88.62 56.59 80.13 52.17C82.89 43 90.4 32.62 102.67 17.17C87.67 29.65 77.6 37.4 68.58 40.47C64.27 32 62.43 19.37 60.46 0C58.46 19.6 56.59 32.29 52.17 40.79C43 38 32.62 30.51 17.18 18.24C29.66 33.24 37.41 43.32 40.48 52.33C32 56.64 19.37 58.48 0 60.46C19.6 62.46 32.29 64.32 40.79 68.74C38.02 77.91 30.51 88.29 18.24 103.74C33.24 91.26 43.32 83.51 52.33 80.44C56.64 88.94 58.48 101.56 60.46 120.92C62.46 101.32 64.32 88.63 68.74 80.14C77.91 82.9 88.29 90.42 103.74 102.68C91.25 87.72 83.5 77.6 80.43 68.58Z" fill="#FFB100"/>
</g>
<defs>
<clipPath id="clip0_15_236">
<rect width="120.91" height="120.91" fill="white"/>
</clipPath>
</defs>
</svg>
