<svg width="137" height="137" viewBox="0 0 137 137" fill="none" xmlns="http://www.w3.org/2000/svg">
<g clip-path="url(#clip0_15_85)">
<path d="M61.25 17.03L67.81 66.22L110.37 40.68L76 76.48L122.5 93.83L73.08 89.28L88.51 136.45L61.25 94.98L33.99 136.45L49.42 89.28L0 93.83L46.5 76.48L12.13 40.68L54.69 66.22L61.25 17.03Z" fill="#FFB100"/>
<path d="M121.46 0L123.09 12.16L133.6 5.85L125.11 14.7L136.6 18.98L124.39 17.86L128.2 29.52L121.46 19.27L114.73 29.52L118.54 17.86L106.33 18.98L117.82 14.7L109.32 5.85L119.84 12.16L121.46 0Z" fill="#FFB100"/>
</g>
<defs>
<clipPath id="clip0_15_85">
<rect width="136.6" height="136.45" fill="white"/>
</clipPath>
</defs>
</svg>
