<svg width="89" height="108" viewBox="0 0 89 108" fill="none" xmlns="http://www.w3.org/2000/svg">
<path d="M70.5555 61.9887C43.7867 64.4241 41.7531 67.1372 40.1844 107.889C40.1765 107.92 40.1579 107.948 40.1316 107.968C40.1052 107.988 40.0726 107.999 40.0391 107.999C40.0056 107.999 39.973 107.988 39.9466 107.968C39.9203 107.948 39.9017 107.92 39.8938 107.889C38.3168 67.1055 36.2832 64.3924 9.52264 61.9569C9.49003 61.9494 9.46101 61.9317 9.44025 61.9065C9.41949 61.8813 9.4082 61.8502 9.4082 61.8181C9.4082 61.7861 9.41949 61.7549 9.44025 61.7297C9.46101 61.7046 9.49003 61.6868 9.52264 61.6793C36.2832 59.2438 38.3168 56.5307 39.8938 15.7471C39.9017 15.7159 39.9203 15.6882 39.9466 15.6683C39.973 15.6485 40.0056 15.6377 40.0391 15.6377C40.0726 15.6377 40.1052 15.6485 40.1316 15.6683C40.1579 15.6882 40.1765 15.7159 40.1844 15.7471C41.7531 56.5625 43.7867 59.2756 70.5555 61.711C70.5882 61.7185 70.6172 61.7363 70.6379 61.7615C70.6587 61.7867 70.67 61.8178 70.67 61.8498C70.67 61.8819 70.6587 61.913 70.6379 61.9382C70.6172 61.9634 70.5882 61.9812 70.5555 61.9887Z" fill="#FFB100"/>
<path d="M88.0363 26.3694C72.8133 27.7656 71.6596 29.2967 70.7631 52.5087C70.7631 52.6039 70.5971 52.6039 70.5971 52.5087C69.7256 29.2967 68.5469 27.7656 53.3157 26.3694C53.2937 26.3694 53.2725 26.361 53.257 26.3461C53.2414 26.3313 53.2327 26.3111 53.2327 26.29C53.2327 26.269 53.2414 26.2488 53.257 26.2339C53.2725 26.2191 53.2937 26.2107 53.3157 26.2107C68.5469 24.8224 69.7256 23.2834 70.5971 0.0793303C70.5971 0.0582906 70.6059 0.0381126 70.6214 0.0232353C70.637 0.00835798 70.6581 0 70.6801 0C70.7021 0 70.7233 0.00835798 70.7388 0.0232353C70.7544 0.0381126 70.7631 0.0582906 70.7631 0.0793303C71.6596 23.2834 72.8133 24.8224 88.0363 26.179C88.0627 26.179 88.088 26.189 88.1067 26.2069C88.1254 26.2247 88.1359 26.2489 88.1359 26.2742C88.1359 26.2994 88.1254 26.3236 88.1067 26.3415C88.088 26.3593 88.0627 26.3694 88.0363 26.3694Z" fill="#FFB100"/>
<path d="M21.2262 27.1389C11.9381 27.9798 11.2657 28.9238 10.693 43.0842C10.6887 43.0945 10.6812 43.1034 10.6716 43.1096C10.662 43.1158 10.6507 43.1192 10.639 43.1192C10.6274 43.1192 10.6161 43.1158 10.6065 43.1096C10.5969 43.1034 10.5894 43.0945 10.5851 43.0842C10.0456 28.9238 9.33173 28.0115 0.0435771 27.1389C-0.0145257 27.1389 -0.0145257 27.0437 0.0435771 27.0437C9.33173 26.179 10.0456 25.2508 10.5851 11.1062C10.5894 11.0959 10.5969 11.0871 10.6065 11.0808C10.6161 11.0746 10.6274 11.0713 10.639 11.0713C10.6507 11.0713 10.662 11.0746 10.6716 11.0808C10.6812 11.0871 10.6887 11.0959 10.693 11.1062C11.2325 25.2587 11.9381 26.179 21.2262 27.0516C21.2338 27.0484 21.2421 27.0471 21.2503 27.0478C21.2586 27.0485 21.2665 27.0511 21.2734 27.0554C21.2803 27.0597 21.286 27.0656 21.2899 27.0726C21.2939 27.0795 21.2959 27.0873 21.2959 27.0952C21.2959 27.1031 21.2939 27.1109 21.2899 27.1179C21.286 27.1248 21.2803 27.1307 21.2734 27.135C21.2665 27.1394 21.2586 27.142 21.2503 27.1426C21.2421 27.1433 21.2338 27.142 21.2262 27.1389Z" fill="#FFB100"/>
</svg>
