<svg width="94" height="121" viewBox="0 0 94 121" fill="none" xmlns="http://www.w3.org/2000/svg">
<path d="M0.132411 48.8073C37.1324 66.5267 38.6624 70.8371 20.5624 119.475C20.4824 119.685 20.8724 119.838 20.9724 119.628C43.5624 72.739 47.8224 70.7224 87.2324 82.7074C87.4924 82.7934 87.6124 82.5067 87.3724 82.392C50.3724 64.663 48.8424 60.41 66.9424 11.7247C67.0224 11.5144 66.6324 11.3615 66.5324 11.5717C43.9424 58.4507 39.6824 60.496 0.272411 48.4919C0.00241125 48.4059 -0.107589 48.7404 0.132411 48.8073Z" fill="#FFB100"/>
<path d="M4.7623 13.3782C18.0023 19.6765 18.5323 21.2153 12.0623 38.6002C12.0623 38.6766 12.1723 38.734 12.2023 38.6575C20.2823 21.8939 21.8023 21.1675 35.8923 25.4588C35.9029 25.4649 35.915 25.4682 35.9274 25.4683C35.9398 25.4685 35.952 25.4655 35.9628 25.4596C35.9736 25.4538 35.9826 25.4454 35.9888 25.4351C35.9951 25.4249 35.9984 25.4133 35.9984 25.4014C35.9984 25.3896 35.9951 25.3779 35.9888 25.3677C35.9826 25.3575 35.9736 25.349 35.9628 25.3432C35.952 25.3374 35.9398 25.3344 35.9274 25.3345C35.915 25.3347 35.9029 25.338 35.8923 25.3441C22.7223 19.0075 22.1623 17.4688 28.6423 0.09345C28.6423 0.0169909 28.5223 -0.0403534 28.4923 0.0361057C20.4123 16.7902 18.8923 17.5166 4.8123 13.2253C4.7123 13.1966 4.6723 13.3018 4.7623 13.3782Z" fill="#FFB100"/>
<path d="M44.1125 103.218C53.1825 107.566 53.5625 108.627 49.1125 120.555C49.1125 120.555 49.1925 120.641 49.2125 120.555C54.7525 109.086 55.8025 108.551 65.4725 111.494C65.5325 111.494 65.5625 111.446 65.4725 111.418C56.4025 107.069 56.0225 106.018 60.4725 94.0902C60.4725 94.0329 60.3925 93.9946 60.3725 94.0902C54.8325 105.559 53.7825 106.094 44.1125 103.151C44.0825 103.103 44.0525 103.218 44.1125 103.218Z" fill="#FFB100"/>
<path d="M74.4224 56.7399C82.2924 60.5629 82.6324 61.4326 78.7724 71.7928C78.7724 71.7928 78.8424 71.8693 78.8624 71.7928C83.6724 61.834 84.5824 61.404 93.0024 63.9558C93.0624 63.9558 93.0824 63.9558 93.0024 63.8889C85.1224 60.1137 84.7924 59.1962 88.6524 48.836C88.6524 48.836 88.5824 48.7595 88.5624 48.836C83.7524 58.7948 82.8424 59.2535 74.4524 56.673C74.3924 56.6539 74.3724 56.7113 74.4224 56.7399Z" fill="#FFB100"/>
</svg>
